<?xml version="1.0" standalone="no"?>
<!DOCTYPE svg PUBLIC "-//W3C//DTD SVG 20010904//EN"
 "http://www.w3.org/TR/2001/REC-SVG-20010904/DTD/svg10.dtd">
<svg version="1.0" xmlns="http://www.w3.org/2000/svg"
 width="300.000000pt" height="300.000000pt" viewBox="0 0 300.000000 300.000000"
 preserveAspectRatio="xMidYMid meet">
<metadata>
Created by potrace 1.14, written by Peter Selinger 2001-2017
</metadata>
<g transform="translate(0.000000,300.000000) scale(0.100000,-0.100000)"
fill="#000000" stroke="none">
<path d="M1368 2995 c-2 -2 -30 -6 -63 -9 -90 -10 -254 -53 -353 -92 -358
-144 -639 -407 -806 -756 -38 -79 -88 -215 -88 -238 0 -3 -4 -14 -8 -26 -5
-11 -11 -38 -14 -58 -4 -21 -8 -42 -11 -46 -17 -28 -26 -360 -11 -470 29 -223
139 -501 268 -675 39 -53 134 -161 183 -208 63 -61 208 -175 235 -185 8 -3 17
-8 20 -11 22 -26 340 -171 340 -156 0 2 19 -3 43 -11 23 -8 58 -17 77 -20 19
-3 69 -12 110 -19 75 -14 362 -14 425 -1 17 4 66 14 110 22 300 60 602 243
825 501 167 193 308 516 337 773 14 125 8 363 -12 455 -90 424 -288 729 -632
973 -86 61 -265 149 -379 186 -83 27 -95 30 -179 46 -27 5 -63 12 -80 16 -30
6 -331 14 -337 9z m287 -199 c60 -5 161 -24 195 -35 14 -5 45 -15 70 -22 41
-11 112 -40 180 -72 14 -6 54 -28 89 -49 34 -21 67 -38 71 -38 5 0 10 -3 12
-7 2 -5 28 -27 58 -49 170 -128 319 -313 411 -510 38 -79 84 -209 94 -264 3
-14 7 -36 10 -50 21 -103 28 -360 12 -470 -14 -92 -56 -240 -94 -330 -160
-373 -457 -645 -843 -773 -68 -23 -109 -32 -225 -53 -53 -10 -328 -10 -385 -1
-42 7 -155 31 -190 41 -118 33 -310 126 -415 201 -234 168 -414 411 -503 680
-55 165 -63 217 -68 415 -2 119 2 179 16 257 19 104 60 244 86 295 8 15 11 28
7 28 -5 0 -3 4 2 8 15 10 35 49 35 67 0 8 5 15 10 15 6 0 10 5 10 11 0 15 85
145 134 204 154 187 345 327 566 415 55 22 101 38 130 45 8 1 33 8 55 14 41
11 80 17 149 25 21 3 40 6 41 8 5 5 218 0 280 -6z"/>
<path d="M1417 2704 c-1 -1 -29 -5 -63 -8 -119 -11 -265 -52 -392 -112 -86
-41 -222 -125 -261 -162 -10 -10 -40 -37 -67 -62 -108 -98 -204 -228 -273
-369 -34 -69 -92 -234 -96 -271 -1 -8 -4 -28 -8 -45 -21 -101 -28 -290 -13
-395 57 -406 283 -744 631 -943 255 -145 546 -196 839 -146 367 62 678 277
877 605 27 45 49 89 49 97 0 8 4 17 8 19 5 2 22 41 39 88 122 339 100 702 -60
1015 -23 44 -44 82 -47 85 -3 3 -21 30 -41 60 -79 120 -210 248 -344 336 -53
35 -217 124 -230 124 -3 0 -10 2 -17 5 -123 40 -207 61 -289 71 -52 6 -237 12
-242 8z"/>
</g>
</svg>
